<svg width="32" height="32" viewBox="0 0 32 32" fill="none" xmlns="http://www.w3.org/2000/svg">
<g clip-path="url(#clip0_803_14518)">
<path d="M16 32C7.14894 32 0 24.8024 0 16C0 7.19757 7.19757 0 16 0C24.8024 0 32 7.19757 32 16C32 24.8024 24.8024 32 16 32Z" fill="#FF8241"/>
<path d="M15.9514 12.4985C13.763 12.4985 11.9636 10.6991 11.9636 8.51064C11.9636 6.32219 13.763 4.5228 15.9514 4.5228C18.1399 4.5228 19.9392 6.32219 19.9392 8.51064C19.9392 10.6991 18.1885 12.4985 15.9514 12.4985ZM15.9514 6.07903C14.6383 6.07903 13.5684 7.14894 13.5684 8.46201C13.5684 9.77508 14.6383 10.8936 15.9514 10.8936C17.2645 10.8936 18.3344 9.82371 18.3344 8.51064C18.3344 7.19757 17.3131 6.07903 15.9514 6.07903Z" fill="white"/>
<path d="M9.09425 16.1945C7.34349 16.1945 5.88452 14.7356 5.88452 12.9848C5.88452 11.234 7.34349 9.77507 9.09425 9.77507C10.845 9.77507 12.304 11.234 12.304 12.9848C12.304 14.7356 10.8936 16.1945 9.09425 16.1945ZM9.09425 11.3799C8.21887 11.3799 7.48939 12.1094 7.48939 12.9848C7.48939 13.8602 8.21887 14.5897 9.09425 14.5897C9.96963 14.5897 10.6991 13.8602 10.6991 12.9848C10.6991 12.1094 10.0183 11.3799 9.09425 11.3799Z" fill="white"/>
<path d="M22.8572 16.1945C21.1064 16.1945 19.6475 14.7356 19.6475 12.9848C19.6475 11.234 21.1064 9.77507 22.8572 9.77507C24.6079 9.77507 26.0669 11.234 26.0669 12.9848C26.0669 14.7356 24.6566 16.1945 22.8572 16.1945ZM22.8572 11.3799C21.9818 11.3799 21.2523 12.1094 21.2523 12.9848C21.2523 13.8602 21.9818 14.5897 22.8572 14.5897C23.7326 14.5897 24.462 13.8602 24.462 12.9848C24.462 12.1094 23.7812 11.3799 22.8572 11.3799Z" fill="white"/>
<path d="M15.9514 27.5745C10.456 27.5745 5.98181 23.1003 5.98181 17.6049V16.8268H6.75993C8.12163 16.8268 9.38607 17.0699 10.6505 17.6049L10.0183 19.0638C9.24017 18.7234 8.46206 18.5289 7.63531 18.4316C8.073 22.614 11.6231 25.921 15.9514 25.921V27.5745Z" fill="white"/>
<path d="M15.9514 27.5745V25.9696C20.2797 25.9696 23.8298 22.6626 24.2675 18.4802C23.4408 18.5775 22.6627 18.772 21.8845 19.0638L21.2523 17.6049C22.4681 17.0699 23.7812 16.8268 25.0943 16.8268H25.8724V17.6049C25.921 23.1003 21.4469 27.5745 15.9514 27.5745Z" fill="white"/>
<path d="M15.9514 27.5745C14.9787 27.5745 14.0061 27.1854 13.2766 26.4559C11.234 24.4134 10.5046 21.3982 11.3799 18.6261C11.8663 17.1185 12.8389 15.8055 14.2492 14.7842L16 13.5198L17.7508 14.7842C19.1611 15.8055 20.1337 17.1672 20.6201 18.6261C21.4954 21.3982 20.766 24.4134 18.7234 26.4559C17.8967 27.1854 16.924 27.5745 15.9514 27.5745ZM15.9514 15.465L15.1733 16.0486C14.0547 16.8754 13.228 17.9453 12.8875 19.1125C12.2067 21.3009 12.7903 23.7325 14.3951 25.3374C15.2705 26.2128 16.6322 26.2128 17.5076 25.3374C19.1611 23.6839 19.7447 21.3009 19.0152 19.1125C18.6261 17.9453 17.848 16.8754 16.7295 16.0486L15.9514 15.465Z" fill="white"/>
</g>
<defs>
<clipPath id="clip0_803_14518">
<rect width="32" height="32" fill="white"/>
</clipPath>
</defs>
</svg>
